<svg width="100" height="86" viewBox="0 0 100 86" fill="none" xmlns="http://www.w3.org/2000/svg">
<path d="M23.265 2.98428C24.3391 1.13674 26.3149 8.87048e-09 28.452 2.32877e-08L71.548 3.1402e-07C73.6851 3.28437e-07 75.6609 1.13674 76.7351 2.98428L98.2467 39.9843C99.3306 41.8487 99.3306 44.1513 98.2467 46.0157L76.7351 83.0157C75.6609 84.8633 73.6851 86 71.548 86L28.452 86C26.3149 86 24.3391 84.8633 23.265 83.0157L1.75333 46.0157C0.669388 44.1513 0.669385 41.8487 1.75333 39.9843L23.265 2.98428Z" fill="#1A1615"/>
<path d="M28.2493 44V39.8561L38.5741 30.9083C39.5049 30.0771 40.1785 29.3192 40.5949 28.6347C41.0358 27.9502 41.2563 27.229 41.2563 26.4711C41.2563 25.4932 40.8644 24.6864 40.0805 24.0508C39.2967 23.3907 38.3046 23.0606 37.1043 23.0606C35.9041 23.0606 34.7773 23.3051 33.724 23.7941C32.6952 24.283 31.5561 25.0898 30.3069 26.2144L27 22.2539C28.5432 20.8604 30.1844 19.8091 31.9236 19.1001C33.6872 18.3667 35.4876 18 37.3248 18C38.77 18 40.0928 18.1956 41.293 18.5867C42.4933 18.9779 43.5099 19.528 44.3427 20.237C45.2001 20.9459 45.8614 21.8016 46.3268 22.804C46.8168 23.8063 47.0617 24.9064 47.0617 26.1044C47.0617 27.5223 46.682 28.8669 45.9227 30.1382C45.1878 31.385 43.9753 32.7419 42.2851 34.2087L36.6267 39.0494H47.3189V44H28.2493Z" fill="white"/>
<path d="M69.8034 18.33V33.3653H73V38.3159H69.8034V44H63.851V38.3159H49.3742V33.512L62.8589 18.33H69.8034ZM56.1717 33.3653H63.851V24.7475L56.1717 33.3653Z" fill="white"/>
<path d="M40.5 68V45H46.2152V53.8386H55.7848V45H61.5V68H55.7848V58.9971H46.2152V68H40.5Z" fill="#BB3232"/>
</svg>
