<svg width="80" height="80" viewBox="0 0 80 80" fill="none" xmlns="http://www.w3.org/2000/svg">
<path fill-rule="evenodd" clip-rule="evenodd" d="M15.7137 40.2567L15.7145 40.2575L24.7224 50.3925L24.7892 50.4325C30.2684 53.7069 33.8263 59.4651 34.3548 65.8627L34.3927 66.322H34.4304V78.4581C34.4304 79.3105 33.7477 80 32.9078 80H14.5998C13.7598 80 13.0771 79.3105 13.0771 78.4581V73.5574L1.65699 52.5962L1.65038 52.5847C0.570422 50.7217 0.000691897 48.6003 0 46.4399V21.5147C0 18.4687 2.43853 16 5.44575 16C8.45297 16 10.8915 18.4687 10.8915 21.5147V38.5843L11.4444 38.5338C11.6202 38.5178 11.7967 38.5106 11.9733 38.5124L11.9787 38.5125C13.4085 38.5448 14.761 39.1764 15.7137 40.2567ZM23.0017 52.9566C22.8603 52.8753 22.7317 52.7709 22.6224 52.648L13.4524 42.32L13.4501 42.3174C12.6486 41.4208 11.2813 41.3512 10.395 42.162C9.50844 42.9729 9.43884 44.3582 10.2391 45.2565L10.2398 45.2573L20.0942 56.2311C20.6535 56.8539 20.6079 57.8087 19.993 58.3759C19.3642 58.9558 18.3806 58.9101 17.8088 58.2732L7.98977 47.3359C6.28442 45.4352 6.19367 42.5758 7.74244 40.5721L7.84629 40.4378V21.5147C7.84629 20.1712 6.77073 19.0839 5.44575 19.0839C4.12077 19.0839 3.04521 20.1712 3.04521 21.5147L3.04521 46.4398C3.04713 48.0656 3.47941 49.6616 4.29694 51.061L4.29851 51.0637L15.9366 72.4124L15.9387 72.4162L15.9397 72.4182C16.0613 72.6463 16.1241 72.9016 16.1224 73.1606V76.9161H31.3852L31.3852 67.5007L31.3852 67.4994C31.369 61.48 28.1698 55.9305 23.0017 52.9566Z" fill="white"/>
<path fill-rule="evenodd" clip-rule="evenodd" d="M64.2839 40.2593L55.2776 50.3925L55.2108 50.4325C49.7316 53.7069 46.1737 59.4651 45.6452 65.8627L45.6072 66.322H45.5696V78.4581C45.5696 79.3105 46.2523 80 47.0922 80H65.4002C66.2402 80 66.9229 79.3105 66.9229 78.4581V73.5574L78.3495 52.5847C79.4294 50.7216 79.9993 48.6005 80 46.44V21.5147C80 18.4687 77.5615 16 74.5543 16C71.547 16 69.1085 18.4687 69.1085 21.5147V38.5843L68.5556 38.5338C68.3798 38.5178 68.2033 38.5106 68.0267 38.5124L68.0238 38.5125L68.0213 38.5125C66.5915 38.5448 65.239 39.1764 64.2863 40.2567L64.2839 40.2593ZM66.5501 42.3172L66.5492 42.3182L57.378 52.6476C57.2686 52.7706 57.1397 52.8753 56.9982 52.9567C51.83 55.9305 48.631 61.48 48.6148 67.4994V76.9161H63.8776L63.8776 73.1638L63.8776 73.1606C63.8759 72.9016 63.9388 72.6461 64.0604 72.418L64.0613 72.4162L64.0634 72.4124L75.7015 51.0636L75.7032 51.0608C76.5207 49.6614 76.9529 48.0651 76.9548 46.4392V21.5147C76.9548 20.1712 75.8792 19.0839 74.5543 19.0839C73.2293 19.0839 72.1537 20.1712 72.1537 21.5147V40.4378L72.2576 40.5721C73.8063 42.5758 73.7156 45.4352 72.0102 47.3359L62.1912 58.2732C61.6194 58.9101 60.6358 58.9558 60.007 58.3759C59.3921 57.8087 59.3465 56.8539 59.9058 56.2311L69.755 45.263L69.7591 45.2585L69.7602 45.2572L69.7612 45.2562C70.5614 44.3579 70.4915 42.9729 69.605 42.162C68.7188 41.3513 67.3516 41.4208 66.5501 42.3172Z" fill="white"/>
<path fill-rule="evenodd" clip-rule="evenodd" d="M57 15.5469C56.9907 23.3959 50.5833 29.7566 42.6767 29.7658H40.937V40.3353L41.6679 39.2957C44.3411 35.4935 48.7155 33.2257 53.3863 33.2207H56.063C56.5803 33.2207 56.9998 33.637 57 34.1505C56.9907 41.9995 50.5833 48.3602 42.6767 48.3694H40.937V58.0698C40.937 58.5835 40.5175 59 40 59C39.4825 59 39.063 58.5835 39.063 58.0698V48.3694H37.3233C29.4168 48.3602 23.0094 41.9996 23 34.1507C23.0001 33.6371 23.4196 33.2207 23.937 33.2207H26.6137C31.2845 33.2257 35.6589 35.4935 38.3321 39.2957L39.063 40.3353V29.7658H37.3233C29.4168 29.7566 23.0094 23.396 23 15.5471C23.0001 15.0335 23.4196 14.6171 23.937 14.6171H26.6137C31.2845 14.6221 35.6589 16.8899 38.3321 20.6921L39.063 21.7317V11.1622H37.3233C31.6332 11.1558 27.0222 6.57839 27.0157 0.929797C27.016 0.416295 27.4354 0 27.9528 0H30.6298C34.3818 0.00232501 37.8361 2.02855 39.6484 5.28994L40 5.92274L40.3516 5.28994C42.1639 2.02855 45.6183 0.00232496 49.3703 0H52.0472C52.5646 0 52.984 0.416295 52.9843 0.929797C52.9778 6.57839 48.3668 11.1558 42.6767 11.1622H40.937V21.7317L41.6679 20.6921C44.3411 16.8899 48.7155 14.6221 53.3863 14.6171H56.063C56.5803 14.6171 56.9998 15.0334 57 15.5469ZM55.0498 16.9209L55.1004 16.4775H53.3853C47.0483 16.485 41.7255 21.2109 41.0132 27.4619L40.9626 27.9054H42.6776C49.0147 27.8979 54.3375 23.1719 55.0498 16.9209ZM50.9934 2.32601L51.0734 1.86036L49.3701 1.86036C45.257 1.86542 41.7451 4.81113 41.0538 8.83615L40.9739 9.3018H42.6777C46.7908 9.29675 50.3021 6.35103 50.9934 2.32601ZM29.0066 2.32601C29.6979 6.35103 33.2092 9.29675 37.3223 9.3018H39.0262L38.9462 8.83615C38.2549 4.81113 34.743 1.86542 30.6299 1.86036H28.9266L29.0066 2.32601ZM24.9502 16.9209C25.6625 23.1719 30.9853 27.8979 37.3224 27.9054H39.0374L38.9868 27.4619C38.2745 21.2109 32.9512 16.485 26.6142 16.4775H24.8997L24.9502 16.9209ZM24.9502 35.5245C25.6625 41.7756 30.9853 46.5015 37.3224 46.509H39.0374L38.9868 46.0656C38.2745 39.8145 32.9512 35.0886 26.6142 35.0811H24.8997L24.9502 35.5245ZM41.0132 46.0656L40.9626 46.509H42.6772C49.0142 46.5015 54.3375 41.7756 55.0498 35.5245L55.1004 35.0811H53.3853C47.0483 35.0886 41.7255 39.8145 41.0132 46.0656Z" fill="white"/>
</svg>
