<svg width="100" height="86" viewBox="0 0 100 86" fill="none" xmlns="http://www.w3.org/2000/svg">
<path d="M23.265 2.98428C24.3391 1.13674 26.3149 8.87048e-09 28.452 2.32877e-08L71.548 3.1402e-07C73.6851 3.28437e-07 75.6609 1.13674 76.7351 2.98428L98.2467 39.9843C99.3306 41.8487 99.3306 44.1513 98.2467 46.0157L76.7351 83.0157C75.6609 84.8633 73.6851 86 71.548 86L28.452 86C26.3149 86 24.3391 84.8633 23.265 83.0157L1.75333 46.0157C0.669388 44.1513 0.669385 41.8487 1.75333 39.9843L23.265 2.98428Z" fill="#1A1615"/>
<path fill-rule="evenodd" clip-rule="evenodd" d="M50.0002 31.3838C50.8381 31.3838 51.5174 32.0621 51.5174 32.8989V36.0555C51.5174 36.8923 50.8381 37.5707 50.0002 37.5707C49.1622 37.5707 48.4829 36.8923 48.4829 36.0555V32.8989C48.4829 32.0621 49.1622 31.3838 50.0002 31.3838ZM50.0002 40.8535C50.8381 40.8535 51.5174 41.5318 51.5174 42.3686V44.0101H53.1611C53.999 44.0101 54.6783 44.6884 54.6783 45.5252C54.6783 46.362 53.999 47.0404 53.1611 47.0404H50.0002C49.1622 47.0404 48.4829 46.362 48.4829 45.5252V42.3686C48.4829 41.5318 49.1622 40.8535 50.0002 40.8535ZM57.9657 45.5252C57.9657 44.6884 58.645 44.0101 59.4829 44.0101H62.6438C63.4818 44.0101 64.1611 44.6884 64.1611 45.5252C64.1611 46.362 63.4818 47.0404 62.6438 47.0404H59.4829C58.645 47.0404 57.9657 46.362 57.9657 45.5252Z" fill="#BB3232"/>
<path d="M50 25.6667C38.9543 25.6667 30 34.6957 30 45.8334C30 56.9712 38.9543 66.0001 50 66.0001C61.0457 66.0001 70 56.9712 70 45.8334C70 34.6957 61.0457 25.6667 50 25.6667ZM50 25.6667V20M50 20H58M50 20H42" stroke="white" stroke-width="4" stroke-linecap="round"/>
</svg>
