<svg width="100" height="86" viewBox="0 0 100 86" fill="none" xmlns="http://www.w3.org/2000/svg">
<path d="M23.265 2.98428C24.3391 1.13674 26.3149 8.87048e-09 28.452 2.32877e-08L71.548 3.1402e-07C73.6851 3.28437e-07 75.6609 1.13674 76.7351 2.98428L98.2467 39.9843C99.3306 41.8487 99.3306 44.1513 98.2467 46.0157L76.7351 83.0157C75.6609 84.8633 73.6851 86 71.548 86L28.452 86C26.3149 86 24.3391 84.8633 23.265 83.0157L1.75333 46.0157C0.669388 44.1513 0.669385 41.8487 1.75333 39.9843L23.265 2.98428Z" fill="#1A1615"/>
<circle cx="50" cy="43" r="17" stroke="white" stroke-width="4"/>
<path d="M52 43C52 44.1046 51.1046 45 50 45M52 43C52 41.8954 51.1046 41 50 41C48.8954 41 48 41.8954 48 43M52 43L65 39M50 45C48.8954 45 48 44.1046 48 43M50 45V58M48 43L35 39" stroke="white" stroke-width="4"/>
<path d="M66.9706 26.0294C62.6274 21.6863 56.6274 19 50 19C36.7452 19 26 29.7452 26 43C26 49.6274 28.6863 55.6274 33.0294 59.9706M66.9706 26.0294C71.3137 30.3726 74 36.3726 74 43C74 56.2548 63.2548 67 50 67C43.3726 67 37.3726 64.3137 33.0294 59.9706M66.9706 26.0294L33.0294 59.9706" stroke="#BB3232" stroke-width="2" stroke-linecap="round" stroke-dasharray="5 5"/>
</svg>
