<svg width="100" height="86" viewBox="0 0 100 86" fill="none" xmlns="http://www.w3.org/2000/svg">
<g clip-path="url(#clip0)">
<path d="M23.265 2.98428C24.3391 1.13674 26.3149 -1.44172e-08 28.452 0L71.548 2.90732e-07C73.6851 3.05149e-07 75.6609 1.13674 76.7351 2.98428L98.2467 39.9843C99.3306 41.8487 99.3306 44.1513 98.2467 46.0157L76.7351 83.0157C75.6609 84.8633 73.6851 86 71.548 86H28.452C26.3149 86 24.3391 84.8633 23.265 83.0157L1.75333 46.0157C0.669384 44.1513 0.669381 41.8487 1.75333 39.9843L23.265 2.98428Z" fill="#1A1615"/>
<path fill-rule="evenodd" clip-rule="evenodd" d="M56.9334 27.8411C56.9384 27.8436 56.9433 27.846 56.9483 27.8484L56.9334 27.8411Z" fill="black"/>
<path fill-rule="evenodd" clip-rule="evenodd" d="M56.9334 27.8411C56.9384 27.8436 56.9433 27.846 56.9483 27.8484L56.9334 27.8411Z" fill="black"/>
<path d="M45.4891 54.2396L46.4001 54.2691C46.4218 54.2699 46.4413 54.2845 46.4482 54.3052L46.8437 55.4975C46.8471 55.5076 46.8507 55.5176 46.8544 55.5275L47.8764 58.4041C47.8855 58.4375 48.1724 59.5014 48.1831 59.5343C48.19 59.5554 48.1831 59.5788 48.1655 59.5926L44.9394 62.1137C44.2097 62.684 44.1471 63.7701 44.8055 64.4217L47.9794 67.5594C48.5798 68.1531 49.5495 68.1458 50.1408 67.5437L54.6208 62.9829C55.1896 62.4034 55.0229 61.8167 55.449 59.4627C55.6279 59.2622 56.363 58.6463 57.7584 57.4241C58.0937 57.362 59.4338 57.2819 62.5802 57.0386C63.0402 57.0033 63.4549 56.7645 63.7181 56.3843L67.2368 51.3069C67.4565 51.0214 67.3882 51.1628 68.7836 44.7827C68.9351 44.606 69.5657 44.0377 70.7497 42.9277C70.7657 42.9128 70.7808 42.8973 70.7951 42.8813L74.5454 39.0469C74.8341 38.7602 74.9997 38.362 74.9997 37.9542C75.0001 37.8273 75.0211 38.0431 74.6308 34.7383C74.5396 33.9652 73.8866 33.3827 73.1122 33.3827H72.0242C71.7027 33.165 70.5487 32.1421 67.7869 29.7812C67.1883 29.2695 66.972 29.4044 62.9304 29.6011C62.719 29.516 61.9675 29.112 60.3455 28.2746C60.3356 28.2695 60.3256 28.2646 60.3156 28.2599L57.5936 26.9282L55.4364 25.8443C55.3006 25.5968 54.9538 24.6141 54.2397 22.7373C53.8044 21.594 52.2744 21.397 51.5667 22.3931L51.0056 23.1822C50.9926 23.2002 50.9697 23.2083 50.9487 23.2025L48.7534 22.597C48.3456 22.4847 47.9054 22.5479 47.5453 22.771C47.1283 23.0297 46.967 23.3612 46.8487 23.7774C46.8487 23.8135 46.8346 23.8694 46.7972 23.8782C44.6316 24.3872 44.69 24.4048 44.6652 24.3301L43.5772 21.0513C43.3377 20.3292 42.6216 19.8962 41.8747 20.0215L38.0249 20.6661C37.1018 20.8206 36.533 21.7646 36.8221 22.6575L37.3104 24.1645C37.3322 24.232 37.3581 24.1864 35.6998 25.1261C35.6781 25.1384 35.6506 25.1338 35.6342 25.115L34.4662 23.7671C34.1206 23.3681 33.6033 23.1776 33.083 23.2573L31.1489 23.5528C30.7323 23.6165 30.3566 23.8533 30.1182 24.2021C29.8798 24.5508 29.7947 24.9881 29.8851 25.4013L30.3017 27.308C30.2895 27.5395 30.1857 28.4973 29.8889 31.4372C29.8828 31.4986 30.04 31.4461 26.9691 32.052C26.4431 32.1559 26.0044 32.5357 25.8236 33.0431L25.0889 35.1096C24.9019 35.6366 25.0145 36.2245 25.3834 36.6438L27.3594 38.8909C27.7786 39.3669 28.4332 39.5347 29.0283 39.3174C29.0634 39.3048 29.0977 39.3297 29.0989 39.3653L29.1065 39.5784C29.1332 40.3714 29.7481 41.008 30.5363 41.0586C32.5668 41.1904 31.5929 41.4146 35.3786 39.7314C35.4149 39.7149 35.4553 39.7421 35.4527 39.7831C35.4195 40.3503 35.2604 41.2391 36.1492 41.7829C37.7277 42.7514 36.7657 42.3436 40.9302 43.713C40.9462 43.7184 40.9592 43.7314 40.9641 43.7479L41.647 46.0026C41.9018 46.8435 42.553 47.0918 43.4059 47.0918C43.4803 47.0918 43.4239 46.786 44.0163 52.8538C44.0911 53.6191 44.7243 54.2147 45.4891 54.2396Z" fill="#BB3232"/>
<path d="M58 18C51.9346 18 47 22.9119 47 28.9492C47 36.5376 58.0108 49.5 58.0108 49.5C58.0108 49.5 69 36.1644 69 28.9492C69 22.9119 64.0655 18 58 18ZM61.3189 32.1552C60.4038 33.0659 59.202 33.5214 58 33.5214C56.7982 33.5214 55.596 33.0659 54.6813 32.1552C52.8512 30.3337 52.8512 27.3698 54.6813 25.5482C55.5674 24.6657 56.7463 24.1796 58 24.1796C59.2537 24.1796 60.4324 24.6659 61.3189 25.5482C63.149 27.3698 63.149 30.3337 61.3189 32.1552Z" fill="white"/>
</g>
<defs>
<clipPath id="clip0">
<rect width="100" height="86" fill="white"/>
</clipPath>
</defs>
</svg>
