<svg width="100" height="86" viewBox="0 0 100 86" fill="none" xmlns="http://www.w3.org/2000/svg">
<path d="M23.265 2.98428C24.3391 1.13674 26.3149 8.87048e-09 28.452 2.32877e-08L71.548 3.1402e-07C73.6851 3.28437e-07 75.6609 1.13674 76.7351 2.98428L98.2467 39.9843C99.3306 41.8487 99.3306 44.1513 98.2467 46.0157L76.7351 83.0157C75.6609 84.8633 73.6851 86 71.548 86L28.452 86C26.3149 86 24.3391 84.8633 23.265 83.0157L1.75333 46.0157C0.669388 44.1513 0.669385 41.8487 1.75333 39.9843L23.265 2.98428Z" fill="#1A1615"/>
<path d="M45.9587 27H54.0415C54.8682 27 55.3845 26.117 54.9703 25.4114L50.9289 18.5281C50.5155 17.824 49.4846 17.824 49.0712 18.5281L45.0298 25.4114C44.6156 26.117 45.1319 27 45.9587 27Z" fill="white"/>
<rect x="35" y="36" width="4" height="4" stroke="#BB3232" stroke-width="2"/>
<rect x="35" y="51" width="4" height="4" stroke="#BB3232" stroke-width="2"/>
<path d="M42 36H66" stroke="#BB3232" stroke-width="2" stroke-dasharray="4 4"/>
<path d="M42 51H66" stroke="#BB3232" stroke-width="2" stroke-dasharray="4 4"/>
<path d="M42 39H59" stroke="#BB3232" stroke-width="2" stroke-dasharray="4 4"/>
<path d="M42 54H53" stroke="#BB3232" stroke-width="2" stroke-dasharray="4 4"/>
<rect x="30" y="23" width="40" height="44" rx="2" stroke="white" stroke-width="2"/>
</svg>
