<svg width="114" height="80" viewBox="0 0 114 80" fill="none" xmlns="http://www.w3.org/2000/svg">
<path d="M64.2127 47.4978C63.7743 49.2481 63.2427 50.9835 62.5992 52.7001C58.2938 64.1855 46.9163 75.4991 34.3171 77.9784C34.1682 78.0073 34.0166 78.0073 33.8657 77.9777C21.2548 75.4666 9.88167 64.2328 5.56688 52.7132C1.34918 41.4532 1.96009 29.4248 2.13211 17.6388C2.16416 15.5306 3.87086 13.7863 6.01759 13.6687C11.7119 13.356 16.7145 12.2733 21.3111 10.3589C25.9018 8.44711 29.9789 5.75221 33.7742 2.12047C33.874 2.03761 33.9891 1.9974 34.1036 2.00013C34.2105 2.00268 34.317 2.04272 34.4099 2.12047C38.2059 5.75221 42.283 8.44711 46.873 10.3589C51.4696 12.2733 56.4722 13.356 62.1672 13.6687C64.3139 13.7863 66.0206 15.5306 66.052 17.6395C66.1269 22.5714 66.2728 27.5522 66.1069 32.5022M64.2127 47.4978H72.5281C73.0612 47.4978 73.4933 47.9231 73.4933 48.4478V67.55C73.4933 69.124 74.7898 70.4 76.3891 70.4H85.834C87.4333 70.4 88.7298 69.124 88.7298 67.55V48.4478C88.7298 47.9231 89.162 47.4978 89.6951 47.4978H109.104C110.704 47.4978 112 46.2218 112 44.6478V35.3522C112 33.7782 110.704 32.5022 109.104 32.5022H89.6951C89.162 32.5022 88.7298 32.0769 88.7298 31.5522V12.45C88.7298 10.876 87.4333 9.6 85.834 9.6H76.3891C74.7898 9.6 73.4933 10.876 73.4933 12.45V31.5522C73.4933 32.0769 73.0612 32.5022 72.5281 32.5022H66.1069M64.2127 47.4978C65.4422 42.5881 65.9373 37.5613 66.1069 32.5022" stroke="white" stroke-width="3"/>
<path d="M22.4229 38.9082L29.759 46.4369C30.4406 47.1224 31.542 47.1459 32.2519 46.4894L46.2703 33.271" stroke="white" stroke-width="3" stroke-linecap="round"/>
<path d="M34.3179 61.8964C22.2489 61.8964 12.4434 52.0764 12.4434 40.0279C12.4434 27.9795 22.2488 18.1602 34.3179 18.1602C46.3998 18.1602 56.193 27.951 56.193 40.0279C56.193 52.1049 46.3998 61.8964 34.3179 61.8964Z" stroke="white" stroke-width="2"/>
</svg>
