<svg width="100" height="86" viewBox="0 0 100 86" fill="none" xmlns="http://www.w3.org/2000/svg">
<path d="M23.265 2.98428C24.3391 1.13674 26.3149 8.87048e-09 28.452 2.32877e-08L71.548 3.1402e-07C73.6851 3.28437e-07 75.6609 1.13674 76.7351 2.98428L98.2467 39.9843C99.3306 41.8487 99.3306 44.1513 98.2467 46.0157L76.7351 83.0157C75.6609 84.8633 73.6851 86 71.548 86L28.452 86C26.3149 86 24.3391 84.8633 23.265 83.0157L1.75333 46.0157C0.669388 44.1513 0.669385 41.8487 1.75333 39.9843L23.265 2.98428Z" fill="#1A1615"/>
<circle cx="50" cy="43" r="4" fill="white"/>
<path d="M66 60.8888C70.91 56.4942 74 50.1079 74 42.9999C74 35.8919 70.91 29.5056 66 25.1111M34 25.1111C29.09 29.5056 26 35.8919 26 42.9999C26 50.1079 29.09 56.4942 34 60.8888M60.4258 57C64.692 53.8178 67.4545 48.7315 67.4545 42.9999C67.4545 37.2684 64.692 32.1821 60.4258 28.9999M39.5742 28.9999C35.308 32.1821 32.5455 37.2684 32.5455 42.9999C32.5455 48.7315 35.308 53.8178 39.5742 57M56 52.1123C58.9576 50.1609 60.9091 46.8083 60.9091 42.9999C60.9091 39.1915 58.9576 35.8389 56 33.8876M44 33.8876C41.0424 35.8389 39.0909 39.1915 39.0909 42.9999C39.0909 46.8083 41.0424 50.1609 44 52.1123" stroke="#BB3232" stroke-width="2" stroke-linecap="round" stroke-dasharray="5 5"/>
</svg>
