<svg width="109" height="144" viewBox="0 0 109 144" fill="none" xmlns="http://www.w3.org/2000/svg">
<g opacity="0.1" filter="url(#filter0_d)">
<path d="M6.6 143V123.773L61.8 74.3032C68.0667 68.5618 72.5333 63.5548 75.2 59.2821C77.8667 54.8759 79.2 50.3362 79.2 45.6629C79.2 39.5209 76.8 34.4471 72 30.4415C67.2 26.4358 61.2 24.433 54 24.433C47.3333 24.433 41.0667 25.7682 35.2 28.4387C29.4667 31.1091 23.2 35.5153 16.4 41.6573L1 23.2313C9.13333 15.8876 17.7333 10.3465 26.8 6.6079C35.8667 2.8693 45.2 1 54.8 1C62.2667 1 69.1333 2.06817 75.4 4.20452C81.8 6.20734 87.2 9.07805 91.6 12.8166C96.1333 16.5552 99.6 21.095 102 26.4358C104.533 31.7767 105.8 37.5849 105.8 43.8604C105.8 51.8717 103.8 59.2821 99.8 66.0917C95.8 72.9013 88.8667 80.7123 79 89.5247L44.8 119.968H107.6V143H6.6Z" fill="#2C2C2C"/>
</g>
<defs>
<filter id="filter0_d" x="0" y="0" width="108.6" height="144" filterUnits="userSpaceOnUse" color-interpolation-filters="sRGB">
<feFlood flood-opacity="0" result="BackgroundImageFix"/>
<feColorMatrix in="SourceAlpha" type="matrix" values="0 0 0 0 0 0 0 0 0 0 0 0 0 0 0 0 0 0 127 0" result="hardAlpha"/>
<feOffset/>
<feGaussianBlur stdDeviation="0.5"/>
<feComposite in2="hardAlpha" operator="out"/>
<feColorMatrix type="matrix" values="0 0 0 0 0 0 0 0 0 0 0 0 0 0 0 0 0 0 0.25 0"/>
<feBlend mode="normal" in2="BackgroundImageFix" result="effect1_dropShadow"/>
<feBlend mode="normal" in="SourceGraphic" in2="effect1_dropShadow" result="shape"/>
</filter>
</defs>
</svg>
