<svg width="114" height="144" viewBox="0 0 114 144" fill="none" xmlns="http://www.w3.org/2000/svg">
<g opacity="0.1" filter="url(#filter0_d)">
<path d="M112.4 102.626C112.4 108.403 111 113.786 108.2 118.775C105.4 123.765 101.467 128.032 96.4 131.577C91.4667 135.122 85.5333 137.945 78.6 140.046C71.8 142.015 64.3333 143 56.2 143C45.4 143 35.1333 141.096 25.4 137.288C15.6667 133.481 7.53333 128.229 1 121.533L19.4 104.792C25 110.307 30.5333 114.18 36 116.412C41.4667 118.644 48.1333 119.76 56 119.76C64.5333 119.76 71.4667 117.988 76.8 114.442C82.1333 110.897 84.8 106.302 84.8 100.656C84.8 95.5354 82.3333 91.4651 77.4 88.4452C72.6 85.4253 66.2 83.9154 58.2 83.9154H45.4V62.448H55.4C62.6 62.448 68.6 60.5441 73.4 56.7365C78.2 52.9288 80.6 48.1364 80.6 42.3592C80.6 37.2386 78.2 32.9713 73.4 29.5576C68.7333 26.1438 62.8 24.4369 55.6 24.4369C48.8 24.4369 42.8 25.6842 37.6 28.1789C32.4 30.5423 26.8 34.6782 20.8 40.5867L2.2 23.846C9 16.7559 17.2 11.1757 26.8 7.10541C36.4 3.03514 46.3333 1 56.6 1C64.0667 1 70.9333 1.98474 77.2 3.95423C83.6 5.79241 89.0667 8.4184 93.6 11.8322C98.1333 15.246 101.667 19.3162 104.2 24.043C106.733 28.7698 108 33.9561 108 39.6019C108 46.4295 106.133 52.6662 102.4 58.3121C98.6667 63.8266 93.6 68.2251 87.2 71.5076C94.8 74.1336 100.867 78.2039 105.4 83.7184C110.067 89.233 112.4 95.5354 112.4 102.626Z" fill="#2C2C2C"/>
</g>
<defs>
<filter id="filter0_d" x="0" y="0" width="113.4" height="144" filterUnits="userSpaceOnUse" color-interpolation-filters="sRGB">
<feFlood flood-opacity="0" result="BackgroundImageFix"/>
<feColorMatrix in="SourceAlpha" type="matrix" values="0 0 0 0 0 0 0 0 0 0 0 0 0 0 0 0 0 0 127 0" result="hardAlpha"/>
<feOffset/>
<feGaussianBlur stdDeviation="0.5"/>
<feComposite in2="hardAlpha" operator="out"/>
<feColorMatrix type="matrix" values="0 0 0 0 0 0 0 0 0 0 0 0 0 0 0 0 0 0 0.25 0"/>
<feBlend mode="normal" in2="BackgroundImageFix" result="effect1_dropShadow"/>
<feBlend mode="normal" in="SourceGraphic" in2="effect1_dropShadow" result="shape"/>
</filter>
</defs>
</svg>
