<svg width="112" height="145" viewBox="0 0 112 145" fill="none" xmlns="http://www.w3.org/2000/svg">
<g opacity="0.1" filter="url(#filter0_d)">
<path d="M8.79995 74.4967L12.2 1.19995H102.4V24.1676H34.4L33 56.7218C37.1333 55.2571 41.3333 54.192 45.6 53.5263C50 52.8605 54.5333 52.5277 59.2 52.5277C74.4 52.5277 86.7333 56.522 96.2 64.5108C105.667 72.3664 110.4 82.6852 110.4 95.4672C110.4 102.524 109 108.981 106.2 114.84C103.533 120.698 99.6666 125.758 94.6 130.019C89.6666 134.146 83.6666 137.408 76.6 139.805C69.5333 142.068 61.7999 143.2 53.4 143.2C43.4 143.2 33.9333 141.602 25 138.407C16.0666 135.211 8.13329 130.551 1.19995 124.426L17.8 105.853C23.9333 110.912 29.8 114.574 35.4 116.837C41.1333 118.967 47.4 120.033 54.2 120.033C62.6 120.033 69.3999 117.902 74.6 113.642C79.8 109.381 82.4 103.789 82.4 96.8652C82.4 90.2079 79.6 84.8155 74 80.688C68.3999 76.4273 61.2 74.297 52.4 74.297C48.2666 74.297 43.9333 74.8296 39.4 75.8948C35 76.8268 30.7333 78.1582 26.6 79.8891L8.79995 74.4967Z" fill="#2C2C2C"/>
</g>
<defs>
<filter id="filter0_d" x="0.199951" y="0.199951" width="111.2" height="144" filterUnits="userSpaceOnUse" color-interpolation-filters="sRGB">
<feFlood flood-opacity="0" result="BackgroundImageFix"/>
<feColorMatrix in="SourceAlpha" type="matrix" values="0 0 0 0 0 0 0 0 0 0 0 0 0 0 0 0 0 0 127 0" result="hardAlpha"/>
<feOffset/>
<feGaussianBlur stdDeviation="0.5"/>
<feComposite in2="hardAlpha" operator="out"/>
<feColorMatrix type="matrix" values="0 0 0 0 0 0 0 0 0 0 0 0 0 0 0 0 0 0 0.25 0"/>
<feBlend mode="normal" in2="BackgroundImageFix" result="effect1_dropShadow"/>
<feBlend mode="normal" in="SourceGraphic" in2="effect1_dropShadow" result="shape"/>
</filter>
</defs>
</svg>
