<svg width="33" height="32" viewBox="0 0 33 32" fill="none" xmlns="http://www.w3.org/2000/svg">
<path d="M20.2 16C20.2 17.3261 20.7267 18.5979 21.6644 19.5355C22.6021 20.4732 23.8739 21 25.2 21C26.526 21 27.7978 20.4732 28.7355 19.5355C29.6732 18.5979 30.2 17.3261 30.2 16C30.2 15.8447 30.1639 15.6916 30.0945 15.5527L26.096 7.5562C26.0823 7.52823 26.0671 7.50099 26.0506 7.4746C25.961 7.32955 25.8358 7.2098 25.6869 7.12674C25.5381 7.04367 25.3704 7.00004 25.2 7H19.0218C18.8708 6.58171 18.6291 6.202 18.3142 5.88806C17.9992 5.57412 17.6187 5.33372 17.2 5.1841V2H15.2V5.1841C14.7812 5.33372 14.4007 5.57412 14.0857 5.88806C13.7708 6.202 13.5291 6.58171 13.3782 7H7.19995C7.01424 6.99998 6.83218 7.05167 6.67419 7.14929C6.51621 7.24691 6.38852 7.3866 6.30545 7.5527L2.30545 15.5527C2.23604 15.6916 2.19992 15.8447 2.19995 16C2.19995 17.3261 2.72674 18.5979 3.66442 19.5355C4.6021 20.4732 5.87387 21 7.19995 21C8.52603 21 9.7978 20.4732 10.7355 19.5355C11.6732 18.5979 12.2 17.3261 12.2 16C12.2 15.8447 12.1639 15.6916 12.0945 15.5527L8.81815 9H13.3782C13.5291 9.41822 13.7708 9.79786 14.0857 10.1117C14.4007 10.4256 14.7812 10.6659 15.2 10.8154V28H6.19995V30H26.2V28H17.2V10.8159C17.6187 10.6663 17.9992 10.4259 18.3142 10.1119C18.6291 9.798 18.8708 9.41829 19.0218 9H23.5818L20.3055 15.5527C20.236 15.6916 20.1999 15.8447 20.2 16ZM7.19995 19C6.58168 18.9979 5.97921 18.8045 5.47518 18.4464C4.97115 18.0884 4.59026 17.5831 4.38475 17H10.0148C9.80929 17.5831 9.42846 18.0883 8.92451 18.4464C8.42056 18.8044 7.81816 18.9978 7.19995 19ZM9.58205 15H4.81785L7.19995 10.2363L9.58205 15ZM16.2 9C16.0022 9 15.8088 8.94135 15.6444 8.83147C15.4799 8.72159 15.3518 8.56541 15.2761 8.38268C15.2004 8.19996 15.1806 7.99889 15.2192 7.80491C15.2578 7.61093 15.353 7.43275 15.4928 7.29289C15.6327 7.15304 15.8109 7.0578 16.0049 7.01921C16.1988 6.98063 16.3999 7.00043 16.5826 7.07612C16.7654 7.15181 16.9215 7.27998 17.0314 7.44443C17.1413 7.60888 17.2 7.80222 17.2 8C17.1997 8.26514 17.0943 8.51936 16.9068 8.70684C16.7193 8.89433 16.4651 8.99976 16.2 9ZM25.2 19C24.5817 18.9979 23.9792 18.8045 23.4752 18.4464C22.9712 18.0884 22.5903 17.5831 22.3848 17H28.0148C27.8093 17.5831 27.4285 18.0883 26.9245 18.4464C26.4206 18.8044 25.8182 18.9978 25.2 19ZM25.2 10.2363L27.5821 15H22.8179L25.2 10.2363Z" fill="#AF0E0E"/>
</svg>
