<svg width="33" height="32" viewBox="0 0 33 32" fill="none" xmlns="http://www.w3.org/2000/svg">
<path d="M8.4 9C7.60887 9 6.83551 8.76541 6.17771 8.32588C5.51992 7.88635 5.00723 7.26164 4.70448 6.53074C4.40173 5.79983 4.32251 4.99556 4.47685 4.21964C4.6312 3.44372 5.01216 2.73098 5.57157 2.17157C6.13098 1.61216 6.84371 1.2312 7.61963 1.07686C8.39556 0.92252 9.19983 1.00173 9.93073 1.30448C10.6616 1.60723 11.2863 2.11992 11.7259 2.77772C12.1654 3.43552 12.4 4.20888 12.4 5C12.4 6.06087 11.9786 7.07828 11.2284 7.82843C10.4783 8.57857 9.46086 9 8.4 9ZM8.4 3C8.00443 3 7.61775 3.1173 7.28886 3.33706C6.95996 3.55683 6.70361 3.86918 6.55224 4.23463C6.40086 4.60009 6.36125 5.00222 6.43842 5.39018C6.5156 5.77814 6.70608 6.13451 6.98578 6.41422C7.26549 6.69392 7.62185 6.8844 8.00981 6.96157C8.39778 7.03874 8.79991 6.99914 9.16536 6.84776C9.53081 6.69639 9.84317 6.44004 10.0629 6.11114C10.2827 5.78224 10.4 5.39556 10.4 5C10.4 4.46957 10.1893 3.96086 9.81421 3.58579C9.43914 3.21072 8.93043 3 8.4 3Z" fill="#AF0E0E"/>
<path d="M24.4 9C23.6089 9 22.8355 8.76541 22.1777 8.32588C21.5199 7.88635 21.0072 7.26164 20.7045 6.53074C20.4017 5.79983 20.3225 4.99556 20.4769 4.21964C20.6312 3.44372 21.0122 2.73098 21.5716 2.17157C22.131 1.61216 22.8437 1.2312 23.6196 1.07686C24.3956 0.92252 25.1998 1.00173 25.9307 1.30448C26.6616 1.60723 27.2863 2.11992 27.7259 2.77772C28.1654 3.43552 28.4 4.20888 28.4 5C28.4 6.06087 27.9786 7.07828 27.2284 7.82843C26.4783 8.57857 25.4609 9 24.4 9ZM24.4 3C24.0044 3 23.6178 3.1173 23.2889 3.33706C22.96 3.55683 22.7036 3.86918 22.5522 4.23463C22.4009 4.60009 22.3613 5.00222 22.4384 5.39018C22.5156 5.77814 22.7061 6.13451 22.9858 6.41422C23.2655 6.69392 23.6219 6.8844 24.0098 6.96157C24.3978 7.03874 24.7999 6.99914 25.1654 6.84776C25.5308 6.69639 25.8432 6.44004 26.0629 6.11114C26.2827 5.78224 26.4 5.39556 26.4 5C26.4 4.46957 26.1893 3.96086 25.8142 3.58579C25.4391 3.21072 24.9304 3 24.4 3Z" fill="#AF0E0E"/>
<path d="M26.4 30H22.4C21.8696 30 21.3609 29.7893 20.9858 29.4142C20.6107 29.0391 20.4 28.5304 20.4 28V22C20.4 21.4477 20.8477 21 21.4 21C21.9523 21 22.4 21.4477 22.4 22V28H26.4V19H28.4V13C28.4 12.7348 28.2946 12.4804 28.1071 12.2929C27.9196 12.1054 27.6652 12 27.4 12H20.98L17.2678 18.4841C16.8838 19.155 15.9162 19.155 15.5322 18.4841L11.82 12H5.39999C5.13478 12 4.88042 12.1054 4.69289 12.2929C4.50535 12.4804 4.39999 12.7348 4.39999 13V19H6.39999V28H10.4V22C10.4 21.4477 10.8477 21 11.4 21C11.9523 21 12.4 21.4477 12.4 22V28C12.4 28.5304 12.1893 29.0391 11.8142 29.4142C11.4391 29.7893 10.9304 30 10.4 30H6.39999C5.86956 30 5.36085 29.7893 4.98578 29.4142C4.61071 29.0391 4.39999 28.5304 4.39999 28V21C3.86956 21 3.36085 20.7893 2.98578 20.4142C2.61071 20.0391 2.39999 19.5304 2.39999 19V13C2.39999 12.2044 2.71606 11.4413 3.27867 10.8787C3.84128 10.3161 4.60434 10 5.39999 10H12.98L15.5312 14.4758C15.9149 15.1489 16.8851 15.1489 17.2688 14.4758L19.82 10H27.4C28.1956 10 28.9587 10.3161 29.5213 10.8787C30.0839 11.4413 30.4 12.2044 30.4 13V19C30.4 19.5304 30.1893 20.0391 29.8142 20.4142C29.4391 20.7893 28.9304 21 28.4 21V28C28.4 28.5304 28.1893 29.0391 27.8142 29.4142C27.4391 29.7893 26.9304 30 26.4 30Z" fill="#AF0E0E"/>
</svg>
