<svg width="33" height="32" viewBox="0 0 33 32" fill="none" xmlns="http://www.w3.org/2000/svg">
<path d="M27.6 24C27.1543 24.0023 26.7149 24.1051 26.3146 24.3008L22.0141 20H18.6V22H21.1859L24.9005 25.7148C24.7051 26.1152 24.6024 26.5545 24.6 27C24.6 27.5933 24.7759 28.1734 25.1056 28.6667C25.4352 29.1601 25.9037 29.5446 26.4519 29.7716C27.0001 29.9987 27.6033 30.0581 28.1852 29.9424C28.7672 29.8266 29.3017 29.5409 29.7213 29.1213C30.1409 28.7018 30.4266 28.1672 30.5423 27.5853C30.6581 27.0033 30.5987 26.4001 30.3716 25.8519C30.1446 25.3038 29.76 24.8352 29.2667 24.5056C28.7733 24.1759 28.1933 24 27.6 24ZM27.6 28C27.4022 28 27.2089 27.9414 27.0444 27.8315C26.88 27.7216 26.7518 27.5654 26.6761 27.3827C26.6004 27.2 26.5806 26.9989 26.6192 26.8049C26.6578 26.6109 26.753 26.4327 26.8929 26.2929C27.0327 26.153 27.2109 26.0578 27.4049 26.0192C27.5989 25.9806 27.7999 26.0004 27.9827 26.0761C28.1654 26.1518 28.3216 26.28 28.4314 26.4444C28.5413 26.6089 28.6 26.8022 28.6 27C28.5997 27.2651 28.4943 27.5194 28.3068 27.7068C28.1193 27.8943 27.8651 27.9998 27.6 28Z" fill="#AF0E0E"/>
<path d="M27.6 13C26.9816 13.0019 26.3789 13.1951 25.8748 13.5532C25.3706 13.9113 24.9897 14.4167 24.7843 15H18.6V17H24.7843C24.9685 17.5171 25.2914 17.9736 25.7175 18.3196C26.1437 18.6656 26.6567 18.8878 27.2006 18.9619C27.7445 19.0361 28.2983 18.9593 28.8016 18.74C29.3048 18.5208 29.7381 18.1674 30.054 17.7185C30.37 17.2696 30.5565 16.7425 30.5932 16.1948C30.6299 15.6471 30.5153 15.0999 30.262 14.6129C30.0088 14.1259 29.6265 13.7179 29.157 13.4334C28.6875 13.149 28.1489 12.999 27.6 13ZM27.6 17C27.4022 17 27.2089 16.9414 27.0444 16.8315C26.88 16.7216 26.7518 16.5654 26.6761 16.3827C26.6004 16.2 26.5806 15.9989 26.6192 15.8049C26.6578 15.6109 26.753 15.4328 26.8929 15.2929C27.0327 15.153 27.2109 15.0578 27.4049 15.0192C27.5989 14.9806 27.7999 15.0004 27.9827 15.0761C28.1654 15.1518 28.3216 15.28 28.4314 15.4444C28.5413 15.6089 28.6 15.8022 28.6 16C28.5997 16.2651 28.4943 16.5194 28.3068 16.7068C28.1193 16.8943 27.8651 16.9998 27.6 17Z" fill="#AF0E0E"/>
<path d="M27.6 2C26.8046 2.00087 26.042 2.31722 25.4796 2.87964C24.9172 3.44206 24.6008 4.20462 24.6 5C24.6034 5.47906 24.7228 5.95017 24.9481 6.373L21.1957 10H18.6V12H22.0043L26.4032 7.7476C26.8118 7.92573 27.255 8.0105 27.7006 7.99576C28.1461 7.98102 28.5828 7.86712 28.9787 7.66237C29.3747 7.45762 29.7201 7.16715 29.9896 6.81212C30.2592 6.45709 30.4463 6.04642 30.5371 5.61C30.628 5.17357 30.6204 4.72238 30.515 4.28925C30.4095 3.85613 30.2088 3.45196 29.9275 3.10618C29.6461 2.76039 29.2912 2.48167 28.8886 2.29032C28.486 2.09897 28.0458 1.99979 27.6 2ZM27.6 6C27.4022 6 27.2089 5.94135 27.0444 5.83147C26.88 5.72159 26.7518 5.56541 26.6761 5.38268C26.6004 5.19996 26.5806 4.99889 26.6192 4.80491C26.6578 4.61093 26.753 4.43275 26.8929 4.29289C27.0327 4.15304 27.2109 4.0578 27.4049 4.01921C27.5989 3.98063 27.7999 4.00043 27.9827 4.07612C28.1654 4.15181 28.3216 4.27998 28.4314 4.44443C28.5413 4.60888 28.6 4.80222 28.6 5C28.5997 5.26514 28.4943 5.51936 28.3068 5.70684C28.1193 5.89433 27.8651 5.99976 27.6 6Z" fill="#AF0E0E"/>
<path d="M18.6 6H20.6V4H18.6C18.0301 4.00191 17.4672 4.12634 16.9496 4.36483C16.432 4.60333 15.9717 4.95033 15.6 5.3823C15.2282 4.95033 14.7679 4.60333 14.2503 4.36483C13.7327 4.12634 13.1699 4.00191 12.6 4H11.6C9.21384 4.00265 6.92619 4.95171 5.23894 6.63896C3.55168 8.32622 2.60262 10.6139 2.59998 13V19C2.60262 21.3861 3.55168 23.6738 5.23894 25.361C6.92619 27.0483 9.21384 27.9974 11.6 28H12.6C13.1699 27.9981 13.7327 27.8737 14.2503 27.6352C14.7679 27.3967 15.2282 27.0497 15.6 26.6177C15.9717 27.0497 16.432 27.3967 16.9496 27.6352C17.4672 27.8737 18.0301 27.9981 18.6 28H20.6V26H18.6C18.0697 25.9994 17.5614 25.7885 17.1864 25.4135C16.8115 25.0386 16.6006 24.5302 16.6 24V8C16.6006 7.46975 16.8115 6.9614 17.1864 6.58646C17.5614 6.21152 18.0697 6.00061 18.6 6ZM12.6 26H11.6C9.9184 25.9971 8.294 25.3893 7.02349 24.2877C5.75299 23.1861 4.92117 21.6642 4.67998 20H6.59998V18H4.59998V14H7.59998C8.39536 13.9991 9.15791 13.6828 9.72033 13.1204C10.2828 12.5579 10.5991 11.7954 10.6 11V9H8.59998V11C8.59974 11.2651 8.4943 11.5194 8.30682 11.7068C8.11933 11.8943 7.86512 11.9998 7.59998 12H4.67998C4.92117 10.3358 5.75299 8.81392 7.02349 7.71232C8.294 6.61073 9.9184 6.00295 11.6 6H12.6C13.1302 6.00061 13.6386 6.21152 14.0135 6.58646C14.3885 6.9614 14.5994 7.46975 14.6 8V12H12.6V14H14.6V18H12.6C11.8046 18.0009 11.042 18.3172 10.4796 18.8796C9.9172 19.4421 9.60085 20.2046 9.59998 21V23H11.6V21C11.6002 20.7349 11.7056 20.4806 11.8931 20.2932C12.0806 20.1057 12.3348 20.0002 12.6 20H14.6V24C14.5994 24.5302 14.3885 25.0386 14.0135 25.4135C13.6386 25.7885 13.1302 25.9994 12.6 26Z" fill="#AF0E0E"/>
</svg>
