<svg width="33" height="32" viewBox="0 0 33 32" fill="none" xmlns="http://www.w3.org/2000/svg">
<path d="M30.68 15.52L24.68 4.52C24.5936 4.36219 24.4663 4.23059 24.3114 4.13907C24.1566 4.04756 23.9799 3.99951 23.8 4H9.79999C9.62009 3.99951 9.4434 4.04756 9.28853 4.13907C9.13365 4.23059 9.00633 4.36219 8.91999 4.52L2.91999 15.52C2.83222 15.672 2.78601 15.8445 2.78601 16.02C2.78601 16.1955 2.83222 16.368 2.91999 16.52L8.91999 27.52C9.01145 27.6704 9.14098 27.7939 9.2955 27.8782C9.45001 27.9625 9.62404 28.0045 9.79999 28H23.8C23.9799 28.0005 24.1566 27.9524 24.3114 27.8609C24.4663 27.7694 24.5936 27.6378 24.68 27.48L30.68 16.48C30.7605 16.3328 30.8027 16.1678 30.8027 16C30.8027 15.8322 30.7605 15.6672 30.68 15.52ZM23.73 7L28.12 15H18.62L23.73 7ZM16.8 14.14L11.62 6H21.98L16.8 14.14ZM9.86999 7L14.98 15H5.47999L9.86999 7ZM5.47999 17H14.98L9.86999 25L5.47999 17ZM16.8 17.86L21.98 26H11.62L16.8 17.86ZM23.73 25L18.62 17H28.12L23.73 25Z" fill="#AF0E0E"/>
</svg>
