<svg width="32" height="32" viewBox="0 0 32 32" fill="none" xmlns="http://www.w3.org/2000/svg">
<path d="M7 28.0001C6.73478 28.0001 6.48043 27.8947 6.29289 27.7072C6.10536 27.5196 6 27.2653 6 27.0001V5.00007C5.99999 4.82629 6.04526 4.65551 6.13136 4.50455C6.21746 4.3536 6.34141 4.22769 6.491 4.13923C6.64058 4.05078 6.81064 4.00283 6.9844 4.00012C7.15816 3.99741 7.32963 4.04003 7.4819 4.12377L27.4819 15.1238C27.6388 15.2101 27.7697 15.3369 27.8608 15.491C27.952 15.6452 28 15.821 28 16C28 16.1791 27.952 16.3549 27.8608 16.509C27.7697 16.6632 27.6388 16.79 27.4819 16.8763L7.4819 27.8763C7.33425 27.9575 7.1685 28 7 28.0001Z" fill="white"/>
</svg>
