<svg width="32" height="32" viewBox="0 0 32 32" fill="none" xmlns="http://www.w3.org/2000/svg">
<path d="M22 25V22.0833C21.9987 21.0008 21.5558 19.9629 20.7684 19.1974C19.981 18.4319 18.9135 18.0013 17.8 18H14.2C13.0865 18.0013 12.019 18.4319 11.2316 19.1974C10.4442 19.9629 10.0013 21.0008 10 22.0833V25" stroke="#AF0E0E" stroke-width="2" stroke-linecap="round"/>
<path d="M16 6C15.2089 6 14.4355 6.2346 13.7777 6.67412C13.1199 7.11365 12.6072 7.73836 12.3045 8.46927C12.0017 9.20017 11.9225 10.0044 12.0769 10.7804C12.2312 11.5563 12.6122 12.269 13.1716 12.8284C13.731 13.3878 14.4437 13.7688 15.2196 13.9231C15.9956 14.0775 16.7998 13.9983 17.5307 13.6955C18.2616 13.3928 18.8864 12.8801 19.3259 12.2223C19.7654 11.5645 20 10.7911 20 10C20 8.93913 19.5786 7.92172 18.8284 7.17157C18.0783 6.42143 17.0609 6 16 6Z" stroke="#AF0E0E" stroke-width="2"/>
<circle cx="16" cy="16" r="14" stroke="#AF0E0E" stroke-width="2"/>
<circle cx="30" cy="16" r="2" fill="#AF0E0E"/>
<circle cx="2" cy="16" r="2" fill="#AF0E0E"/>
<circle cx="16" cy="30" r="2" fill="#AF0E0E"/>
<circle cx="16" cy="2" r="2" fill="#AF0E0E"/>
</svg>
